Coordinates
version=1
nRows=8
nColumns=33
inDegrees=yes

Units are S.I. units (second, meters, Newtons, ...)
Angles are in degrees.

endheader
time	ground_thorax_rot_x	ground_thorax_rot_y	ground_thorax_rot_z	ground_thorax_tx	ground_thorax_ty	ground_thorax_tz	clav_prot_r	clav_elev_r	scapula_abduction_r	scapula_elevation_r	scapula_upward_rot_r	scapula_winging_r	shoulder_elv_r	plane_of_elev_r	axial_rot_r	elbow_flexion_r	pro_sup_r	wrist_flex_r	wrist_dev_r	clav_prot_l	clav_elev_l	scapula_abduction_l	scapula_elevation_l	scapula_upward_rot_l	scapula_winging_l	shoulder_elv_l	plane_of_elev_l	axial_rot_l	elbow_flexion_l	pro_sup_l	wrist_flex_l	wrist_dev_l
      6.95000000	    -90.00000000	     90.00000000	    -90.00000000	   -246.93135533	    832.46732561	      6.67936452	     25.52223570	     41.26653004	     45.00000000	     45.00000000	     17.61109402	   3224.82569350	   -259.28794554	     26.32198434	   -160.07976046	    741.86222050	    107.03266874	     15.75901260	      3.09740023	    -45.00000000	      2.70380329	     33.83339575	    -12.96303329	    -45.00000000	  -1333.78413979	   -242.56493977	     11.96569458	   -161.56458034	   2168.86474150	     34.58700271	      5.28922570	    -22.88948720
      6.96000000	    -90.00000000	     90.00000000	    -90.00000000	   -246.60867842	    831.38044106	      6.52375732	     25.40757393	     41.44389887	     45.00000000	     45.00000000	     17.77516601	   3224.80423097	   -259.28410564	     26.32240067	   -159.84105975	    742.00443670	    108.26760457	     15.51139099	      3.00992560	    -45.00000000	      3.77151228	     33.98715149	    -13.37424211	    -45.00000000	  -1334.11295567	   -242.74956111	     11.76069507	   -161.32502926	   2168.72346419	     34.13611428	      4.96804250	    -23.19068931
      6.97000000	    -90.00000000	     90.00000000	    -90.00000000	   -246.11430466	    830.33960404	      6.39768697	     25.44932575	     41.35169630	     45.00000000	     45.00000000	     17.81005004	   3224.81486915	   -259.19028193	     26.30819785	   -159.51084599	    742.13656657	    109.51328478	     15.41813419	      3.12658409	    -45.00000000	      3.30763981	     33.91213214	    -13.34235359	    -45.00000000	  -1333.67014884	   -242.87377058	     11.92426354	   -161.16797527	   2168.71916583	     33.91834260	      5.07677202	    -23.01293927
      6.98000000	    -90.00000000	     90.00000000	    -90.00000000	   -245.50872556	    829.37723982	      6.30136730	     25.47928765	     41.42793735	     45.00000000	     45.00000000	     17.90248180	   3224.81401487	   -259.22884341	     26.29462024	   -159.34648823	    742.26137848	    110.79918339	     15.16567921	      3.17338463	    -45.00000000	      3.73250468	     34.13055579	    -13.56310109	    -45.00000000	  -1333.87670456	   -242.93361464	     11.78544016	   -161.10216027	   2168.63697033	     33.81364835	      4.85465402	    -23.07849473
      6.99000000	    -90.00000000	     90.00000000	    -90.00000000	   -244.85194876	    828.52547152	      6.22883391	     25.51098816	     41.39595895	     45.00000000	     45.00000000	     17.90064207	   3224.81020420	   -259.17646511	     26.27585024	   -159.21640640	    742.33513080	    112.01039405	     15.04059043	      3.25732694	    -45.00000000	      3.64286763	     34.15989214	    -13.67265590	    -45.00000000	  -1333.74430560	   -243.10636131	     11.88586308	   -161.01379999	   2168.67755586	     33.86685234	      4.75270925	    -22.99305934
      7.00000000	    -90.00000000	     90.00000000	    -90.00000000	   -244.18632617	    827.80442601	      6.16916256	     25.56051475	     41.41612114	     45.00000000	     45.00000000	     17.96960646	   3224.82408664	   -259.24886155	     26.22489565	   -159.23202649	    742.43276176	    113.20237425	     14.83749339	      3.31760106	    -45.00000000	      3.77184578	     34.36409911	    -13.72796470	    -45.00000000	  -1333.81132844	   -243.06227735	     11.80697392	   -161.04825352	   2168.58707834	     34.05831420	      4.59704306	    -23.01592366
      7.01000000	    -90.00000000	     90.00000000	    -90.00000000	   -243.54169407	    827.23578442	      6.11125336	     25.59625947	     41.41906614	     45.00000000	     45.00000000	     17.88916157	   3224.84991926	   -259.17154124	     26.19702126	   -159.23545669	    742.56952747	    114.36707519	     14.74730720	      3.34452263	    -45.00000000	      3.77260399	     34.54187937	    -13.78332579	    -45.00000000	  -1333.89991179	   -243.02209639	     11.79438866	   -161.02106924	   2168.71352789	     34.32753855	      4.45296778	    -22.98019506
      7.02000000	    -90.00000000	     90.00000000	    -90.00000000	   -242.92719476	    826.83121807	      6.04535931	     25.65437039	     41.39679750	     45.00000000	     45.00000000	     17.97252483	   3224.87252569	   -259.31555967	     26.17072096	   -159.38537888	    742.62349574	    115.46163463	     14.58326811	      3.39223769	    -45.00000000	      3.79053634	     34.61226652	    -13.87330493	    -45.00000000	  -1333.92756102	   -243.10388327	     11.77530885	   -161.05592643	   2168.72082719	     34.64151291	      4.32919860	    -22.99112185
